<svg xmlns="http://www.w3.org/2000/svg" viewBox="0 0 97 94" style="enable-background:new 0 0 97 94"><path d="M17.6 14.1h22.8c3.5 0 6.3 2.8 6.3 6.3v22.9c0 3.5-2.8 6.3-6.3 6.3H17.6c-3.5 0-6.3-2.8-6.3-6.3V20.5c0-3.5 2.8-6.4 6.3-6.4z" style="fill:#037fff"/><path d="M47.3 21h22.8c3.5 0 6.3 2.8 6.3 6.3v22.8c0 3.5-2.8 6.3-6.3 6.3H47.3c-3.5 0-6.3-2.8-6.3-6.3V27.3c0-3.5 2.8-6.3 6.3-6.3z" style="fill:#3babff"/><path d="M54.1 48.3H77c3.5 0 6.3 2.8 6.3 6.3v22.8c0 3.5-2.8 6.3-6.3 6.3H54.1c-3.5 0-6.3-2.8-6.3-6.3V54.7c0-3.5 2.8-6.4 6.3-6.4z" style="fill:#69c6ff"/><path d="M24.5 41.5h22.8c3.5 0 6.3 2.8 6.3 6.3v22.8c0 3.5-2.8 6.3-6.3 6.3H24.5c-3.5 0-6.3-2.8-6.3-6.3V47.8c-.1-3.5 2.8-6.3 6.3-6.3z" style="fill:#71deff"/></svg>