<svg xmlns="http://www.w3.org/2000/svg" viewBox="0 0 240.7 94" style="enable-background:new 0 0 240.7 94"><style>.st0{fill:#037fff}.st1{fill:#070c1a}</style><path class="st0" d="M238.3 72.7h-3c-1.9 0-3.7-.9-4.7-2.5l-23.1-34.3c-1.1-1.6.1-3.7 2-3.7h3c1.9 0 3.7.9 4.7 2.5L240.3 69c1.1 1.5-.1 3.7-2 3.7z"/><path class="st0" d="m220.2 49.9 5.3 7.9-8.4 12.4c-1.1 1.6-2.8 2.5-4.7 2.5h-3c-1.9 0-3-2.2-2-3.7l12.8-19.1zM240.3 35.9l-7.2 10.7a2.71 2.71 0 0 1-4.5 0l-1.4-2c-1-1.5-1-3.5 0-5l3.3-5c1.1-1.6 2.8-2.5 4.7-2.5h3c2 .1 3.2 2.2 2.1 3.8z"/><path class="st1" d="M106.1 58.8v10.6c0 1.6-1.3 2.8-2.8 2.8h-3.7c-1.6 0-2.8-1.3-2.8-2.8V34.9c0-1.6 1.3-2.8 2.8-2.8H111c2.8 0 5.3.3 7.3 1s3.7 1.6 5 2.8 2.3 2.6 2.9 4.2c.6 1.6.9 3.3.9 5.2 0 2-.3 3.8-1 5.5-.6 1.7-1.6 3.1-2.9 4.3s-3 2.1-5 2.8-4.4 1-7.2 1h-4.9v-.1zm0-7h4.9c2.4 0 4.2-.6 5.2-1.7 1.1-1.2 1.6-2.8 1.6-4.9 0-.9-.1-1.8-.4-2.5-.3-.8-.7-1.4-1.3-1.9-.6-.5-1.3-1-2.1-1.3-.9-.3-1.9-.4-3-.4h-4.9v12.7zM143.9 43.2c2.2 0 4.1.3 5.9 1 1.8.7 3.3 1.7 4.6 2.9 1.3 1.3 2.3 2.8 3 4.6s1.1 3.8 1.1 6.1-.4 4.3-1.1 6.2c-.7 1.8-1.7 3.4-3 4.7-1.3 1.3-2.8 2.3-4.6 2.9-1.8.7-3.8 1-5.9 1-2.2 0-4.2-.3-6-1s-3.3-1.7-4.6-2.9c-1.3-1.3-2.3-2.8-3-4.7-.7-1.8-1.1-3.9-1.1-6.2s.4-4.3 1.1-6.1c.7-1.8 1.7-3.3 3-4.6s2.8-2.2 4.6-2.9c1.8-.6 3.8-1 6-1zm0 23.2c2 0 3.4-.7 4.3-2.1.9-1.4 1.4-3.5 1.4-6.3s-.5-4.9-1.4-6.3c-.9-1.4-2.4-2.1-4.3-2.1-2 0-3.5.7-4.4 2.1-.9 1.4-1.4 3.5-1.4 6.3s.5 4.9 1.4 6.3c.9 1.4 2.4 2.1 4.4 2.1z"/><g><path class="st1" d="M180.6 49.9c-.2.3-.5.6-.7.7-.2.1-.6.2-1 .2s-.8-.1-1.2-.3-.8-.4-1.3-.6c-.5-.2-1-.4-1.6-.6-.6-.2-1.3-.3-2-.3-1.1 0-1.9.2-2.5.6-.6.4-.9 1-.9 1.7 0 .5.2 1 .6 1.3.4.3.9.7 1.5.9.6.3 1.3.5 2.1.8.8.2 1.6.5 2.4.8.8.3 1.6.6 2.4 1 .8.4 1.5.9 2.1 1.5s1.1 1.3 1.5 2.1.6 1.8.6 3c0 1.4-.3 2.7-.8 3.9-.5 1.2-1.3 2.2-2.3 3.1s-2.3 1.5-3.8 2-3.2.7-5.2.7c-1 0-1.9-.1-2.9-.3-1-.2-1.9-.4-2.8-.7-.9-.3-1.8-.7-2.5-1.1-.8-.4-1.4-.9-2-1.4l2-3.1c.2-.4.5-.7.9-.9.3-.2.8-.3 1.3-.3s.9.1 1.3.3c.4.2.8.5 1.3.7.5.3 1 .5 1.6.7s1.4.3 2.3.3c.7 0 1.2-.1 1.7-.2s.8-.3 1.1-.6c.3-.2.5-.5.6-.8s.2-.6.2-.9c0-.6-.2-1-.6-1.4-.4-.4-.9-.7-1.5-1s-1.3-.5-2.1-.7-1.6-.5-2.4-.8c-.8-.3-1.6-.6-2.4-1.1-.8-.4-1.5-.9-2.1-1.6-.6-.6-1.1-1.4-1.5-2.3-.4-.9-.6-2-.6-3.3 0-1.2.2-2.4.7-3.5s1.2-2.1 2.1-2.9c.9-.8 2.1-1.5 3.5-2s3.1-.7 5-.7c1 0 2 .1 3 .3s1.9.4 2.7.8c.8.3 1.6.7 2.3 1.2s1.3.9 1.8 1.5l-1.9 3.3z"/></g><g><path class="st1" d="M197.4 72.7c-1.4 0-2.6-.2-3.6-.6s-1.9-1-2.6-1.7c-.7-.7-1.2-1.6-1.6-2.6-.4-1-.6-2.2-.6-3.4V49.6h-2.4c-.4 0-.8-.1-1.1-.4-.3-.3-.5-.7-.5-1.3v-1c0-1.4 1-2.5 2.3-2.8l2.3-.4 1.7-7c.2-.9.8-1.3 1.9-1.3h4.5v8.4h4.1c1.6 0 2.8 1.3 2.8 2.8v.2c0 1.6-1.3 2.8-2.8 2.8h-4.1v14.2c0 .7.2 1.2.5 1.6s.8.6 1.4.6c.3 0 .6 0 .8-.1s.4-.1.6-.2c.2-.1.3-.2.4-.2.1-.1.3-.1.5-.1.3 0 .5.1.6.2.2.1.3.3.5.6l1 1.5c1 1.5.3 3.6-1.4 4.2-.2.1-.4.1-.6.2-1.7.4-3.1.6-4.6.6z"/></g><g><path class="st0" d="M17.6 14.1h22.8c3.5 0 6.3 2.8 6.3 6.3v22.9c0 3.5-2.8 6.3-6.3 6.3H17.6c-3.5 0-6.3-2.8-6.3-6.3V20.5c0-3.5 2.8-6.4 6.3-6.4z"/><path d="M47.3 21h22.8c3.5 0 6.3 2.8 6.3 6.3v22.8c0 3.5-2.8 6.3-6.3 6.3H47.3c-3.5 0-6.3-2.8-6.3-6.3V27.3c0-3.5 2.8-6.3 6.3-6.3z" style="fill:#3babff"/><path d="M54.1 48.3H77c3.5 0 6.3 2.8 6.3 6.3v22.8c0 3.5-2.8 6.3-6.3 6.3H54.1c-3.5 0-6.3-2.8-6.3-6.3V54.7c0-3.5 2.8-6.4 6.3-6.4z" style="fill:#69c6ff"/><path d="M24.5 41.5h22.8c3.5 0 6.3 2.8 6.3 6.3v22.8c0 3.5-2.8 6.3-6.3 6.3H24.5c-3.5 0-6.3-2.8-6.3-6.3V47.8c-.1-3.5 2.8-6.3 6.3-6.3z" style="fill:#71deff"/></g></svg>