<svg data-name="Group 2352" xmlns="http://www.w3.org/2000/svg" width="50" height="33.17"><defs><clipPath id="a"><path data-name="Rectangle 1831" fill="none" d="M0 0h50v33.17H0z"/></clipPath></defs><g data-name="Group 2351" clip-path="url(#a)" fill="#037fff"><path data-name="Path 309" d="M10.53 16.59a4.16 4.16 0 1 0 4.16-4.16 4.17 4.17 0 0 0-4.16 4.16"/><path data-name="Path 310" d="M14.69 11.19h.01a.636.636 0 0 0 .64-.63v-1.2a.625.625 0 0 0-.62-.63h-.04a.627.627 0 0 0-.63.63v1.2a.636.636 0 0 0 .64.63"/><path data-name="Path 311" d="M9.98 12.78a.62.62 0 0 0 .44.18.635.635 0 0 0 .46-.19v-.01a.622.622 0 0 0 .01-.89l-.85-.85v-.01a.64.64 0 0 0-.89 0l-.02.03a.622.622 0 0 0 0 .89z"/><path data-name="Path 312" d="M9.29 16.59v-.01a.628.628 0 0 0-.62-.64H7.46a.623.623 0 0 0-.62.62v.04a.625.625 0 0 0 .62.63h1.21a.628.628 0 0 0 .62-.64"/><path data-name="Path 313" d="M10.87 20.39a.631.631 0 0 0-.89 0l-.85.85h-.01a.64.64 0 0 0 0 .89l.03.02a.61.61 0 0 0 .88 0l.86-.85a.62.62 0 0 0 .18-.44.635.635 0 0 0-.19-.46z"/><path data-name="Path 314" d="M14.7 21.98h-.02a.634.634 0 0 0-.63.63v1.21a.623.623 0 0 0 .62.62h.04a.623.623 0 0 0 .62-.62v-1.21a.627.627 0 0 0-.63-.63"/><path data-name="Path 315" d="M19.4 20.39a.6.6 0 0 0-.43-.18.635.635 0 0 0-.46.19l-.01.01a.631.631 0 0 0 0 .89l.85.85v.01a.628.628 0 0 0 .88 0l.03-.03a.628.628 0 0 0 0-.88z"/><path data-name="Path 316" d="M20.09 16.58v.02a.634.634 0 0 0 .63.63h1.2a.625.625 0 0 0 .63-.62v-.04a.627.627 0 0 0-.63-.63h-1.2a.636.636 0 0 0-.63.64"/><path data-name="Path 317" d="M18.51 12.78a.643.643 0 0 0 .9 0l.85-.85a.61.61 0 0 0 0-.88l-.02-.03a.64.64 0 0 0-.89 0l-.85.86a.6.6 0 0 0-.18.43.635.635 0 0 0 .19.46z"/><path data-name="Path 318" d="M45.14 4.86A16.521 16.521 0 0 0 33.42 0H16.58a16.585 16.585 0 1 0 0 33.17h16.84A16.582 16.582 0 0 0 45.14 4.86M25 30.17h-8.42a13.585 13.585 0 0 1 0-27.17H25zm11.75-7.02a6.66 6.66 0 0 1-1.59-13.13 5.733 5.733 0 0 0-1 3.25 5.806 5.806 0 0 0 5.81 5.8 5.705 5.705 0 0 0 3.25-1 6.66 6.66 0 0 1-6.47 5.08"/></g></svg>