<?xml version="1.0" encoding="utf-8"?>
<!-- Generator: Adobe Illustrator 28.3.0, SVG Export Plug-In . SVG Version: 6.00 Build 0)  -->
<svg version="1.1" id="Layer_1" xmlns="http://www.w3.org/2000/svg" xmlns:xlink="http://www.w3.org/1999/xlink" x="0px" y="0px"
	 viewBox="0 0 50 50" style="enable-background:new 0 0 50 50;" xml:space="preserve">
<style type="text/css">
	.st0{fill:#037FFF;}
</style>
<path class="st0" d="M43.5,18.5c-1.3,0-2.5,0.4-3.5,1L30.5,10c0.6-1,1-2.2,1-3.5C31.5,2.9,28.6,0,25,0s-6.5,2.9-6.5,6.5
	c0,1.3,0.4,2.5,1,3.5L10,19.5c-1-0.6-2.2-1-3.5-1C2.9,18.5,0,21.4,0,25s2.9,6.5,6.5,6.5c1.3,0,2.5-0.4,3.5-1l9.5,9.5
	c-0.6,1-1,2.2-1,3.5c0,3.6,2.9,6.5,6.5,6.5s6.5-2.9,6.5-6.5c0-1.3-0.4-2.5-1-3.5l9.5-9.5c1,0.6,2.2,1,3.5,1c3.6,0,6.5-2.9,6.5-6.5
	S47.1,18.5,43.5,18.5z M25,36.9c-1.3,0-2.5,0.4-3.5,1l-9.5-9.5c0.6-1,1-2.2,1-3.5c0-1.3-0.4-2.5-1-3.5l9.5-9.5c1,0.6,2.2,1,3.5,1
	s2.5-0.4,3.5-1l9.5,9.5c-0.6,1-1,2.2-1,3.5s0.4,2.5,1,3.5l-9.5,9.5C27.5,37.3,26.3,36.9,25,36.9z M25,2.9c2,0,3.6,1.6,3.6,3.6
	S27,10.1,25,10.1s-3.6-1.6-3.6-3.6S23,2.9,25,2.9z M2.9,25c0-2,1.6-3.6,3.6-3.6s3.6,1.6,3.6,3.6s-1.6,3.6-3.6,3.6S2.9,27,2.9,25z
	 M25,47.1c-2,0-3.6-1.6-3.6-3.6s1.6-3.6,3.6-3.6s3.6,1.6,3.6,3.6S27,47.1,25,47.1z M43.5,28.6c-2,0-3.6-1.6-3.6-3.6s1.6-3.6,3.6-3.6
	s3.6,1.6,3.6,3.6S45.5,28.6,43.5,28.6z"/>
</svg>
