<svg width="56" height="38" fill="none" xmlns="http://www.w3.org/2000/svg"><path d="M29 24.296a5.296 5.296 0 1 0 0-10.592 5.296 5.296 0 0 0 0 10.592zM29.82 9.796v1.536a.8.8 0 0 1-.808.796h-.02a.8.8 0 0 1-.808-.796V9.796c0-.44.356-.796.796-.796h.048c.44 0 .796.356.796.796h-.004zM23.072 11.912 24.16 13a.803.803 0 0 1-.008 1.136l-.004.004-.008.008a.8.8 0 0 1-1.136.008l-1.088-1.088a.797.797 0 0 1 0-1.128l.032-.032a.797.797 0 0 1 1.128 0l-.004.004zM19.796 18.18h1.536a.8.8 0 0 1 .796.808v.02a.8.8 0 0 1-.796.808h-1.536A.796.796 0 0 1 19 19.02v-.048c0-.44.356-.796.796-.796v.004zM21.912 24.928 23 23.84a.803.803 0 0 1 1.136.008l.004.004.008.008a.8.8 0 0 1 .008 1.136l-1.088 1.088a.797.797 0 0 1-1.128 0l-.032-.032a.797.797 0 0 1 0-1.128l.004.004zM28.18 28.204v-1.536a.8.8 0 0 1 .808-.796h.02a.8.8 0 0 1 .808.796v1.536c0 .44-.356.796-.796.796h-.048a.796.796 0 0 1-.796-.796h.004zM34.928 26.088 33.84 25a.803.803 0 0 1 .008-1.136l.004-.004.008-.008a.8.8 0 0 1 1.136-.008l1.088 1.088a.797.797 0 0 1 0 1.128l-.032.032a.797.797 0 0 1-1.128 0l.004-.004zM38.204 19.82h-1.536a.8.8 0 0 1-.796-.808v-.02a.8.8 0 0 1 .796-.808h1.536c.44 0 .796.356.796.796v.048c0 .44-.356.796-.796.796v-.004zM36.088 13.072 35 14.16a.803.803 0 0 1-1.136-.008l-.004-.004-.008-.008a.8.8 0 0 1-.008-1.136l1.088-1.088a.797.797 0 0 1 1.128 0l.032.032a.797.797 0 0 1 0 1.128l-.004-.004z" fill="#2E2E2E"/></svg>