<svg width="56" height="38" fill="none" xmlns="http://www.w3.org/2000/svg"><rect x="48" y="9" width="20" height="40" rx="10" transform="rotate(90 48 9)" fill="#C3C3C3"/><rect x="25.5" y="11.5" width="15" height="15" rx="7.5" transform="rotate(90 25.5 11.5)" fill="#9A9A9A"/><path d="M18 21.648a2.648 2.648 0 1 0 0-5.296 2.648 2.648 0 0 0 0 5.296zM18.41 14.398v.768a.4.4 0 0 1-.404.398h-.01a.4.4 0 0 1-.404-.398v-.768c0-.22.178-.398.398-.398h.024c.22 0 .398.178.398.398h-.002zM15.036 15.456l.544.544a.401.401 0 0 1-.004.568l-.002.002-.004.004a.4.4 0 0 1-.568.004l-.544-.544a.398.398 0 0 1 0-.564l.016-.016a.398.398 0 0 1 .564 0l-.002.002zM13.398 18.59h.768a.4.4 0 0 1 .398.404v.01a.4.4 0 0 1-.398.404h-.768A.398.398 0 0 1 13 19.01v-.024c0-.22.178-.398.398-.398v.002zM14.456 21.964 15 21.42a.401.401 0 0 1 .568.004l.002.002.004.004a.4.4 0 0 1 .004.568l-.544.544a.398.398 0 0 1-.564 0l-.016-.016a.398.398 0 0 1 0-.564l.002.002zM17.59 23.602v-.768a.4.4 0 0 1 .404-.398h.01a.4.4 0 0 1 .404.398v.768c0 .22-.178.398-.398.398h-.024a.398.398 0 0 1-.398-.398h.002zM20.964 22.544 20.42 22a.401.401 0 0 1 .004-.568l.002-.002.004-.004a.4.4 0 0 1 .568-.004l.544.544a.398.398 0 0 1 0 .564l-.016.016a.398.398 0 0 1-.564 0l.002-.002zM22.602 19.41h-.768a.4.4 0 0 1-.398-.404v-.01a.4.4 0 0 1 .398-.404h.768c.22 0 .398.178.398.398v.024c0 .22-.178.398-.398.398v-.002zM21.544 16.036 21 16.58a.401.401 0 0 1-.568-.004l-.002-.002-.004-.004a.4.4 0 0 1-.004-.568l.544-.544a.398.398 0 0 1 .564 0l.016.016a.398.398 0 0 1 0 .564l-.002-.002z" fill="#2E2E2E"/></svg>