<svg width="56" height="38" fill="none" xmlns="http://www.w3.org/2000/svg"><rect x="48" y="8" width="21.538" height="40" rx="10.769" transform="rotate(90 48 8)" fill="#C3C3C3"/><path d="M28 22.028a3.259 3.259 0 1 0 0-6.518 3.259 3.259 0 0 0 0 6.518zM28.505 13.105v.945c0 .274-.224.49-.497.49H27.994a.493.493 0 0 1-.497-.49v-.945c0-.27.219-.49.49-.49h.03c.27 0 .49.22.49.49h-.003zM24.352 14.407l.67.67a.494.494 0 0 1-.005.699l-.003.002-.005.005a.492.492 0 0 1-.699.005l-.67-.67a.49.49 0 0 1 0-.693l.02-.02a.49.49 0 0 1 .695 0l-.003.002zM22.336 18.265h.945c.274 0 .49.224.49.497v.012a.493.493 0 0 1-.49.497h-.945a.49.49 0 0 1-.49-.49v-.029c0-.27.22-.49.49-.49v.003zM23.638 22.417l.67-.67a.494.494 0 0 1 .699.006l.002.002.005.005c.195.192.2.505.005.7l-.67.669a.49.49 0 0 1-.694 0l-.02-.02a.49.49 0 0 1 0-.694l.003.002zM27.495 24.433v-.945c0-.273.224-.49.498-.49h.012c.273 0 .497.217.497.49v.945c0 .271-.219.49-.49.49h-.03a.49.49 0 0 1-.489-.49h.002zM31.648 23.131l-.67-.67a.494.494 0 0 1 .005-.698l.003-.003.005-.005a.492.492 0 0 1 .699-.005l.67.67a.49.49 0 0 1 0 .694l-.02.02a.49.49 0 0 1-.694 0l.002-.003zM33.664 19.274h-.945a.493.493 0 0 1-.49-.497V18.764c0-.273.217-.497.49-.497h.945c.27 0 .49.22.49.49v.03c0 .27-.22.49-.49.49v-.003zM32.362 15.121l-.67.67a.494.494 0 0 1-.699-.005l-.002-.003-.005-.005a.492.492 0 0 1-.005-.699l.67-.67a.49.49 0 0 1 .694 0l.02.02a.49.49 0 0 1 0 .695l-.003-.003z" fill="#2E2E2E"/></svg>