<svg width="56" height="38" fill="#C3C3C3" xmlns="http://www.w3.org/2000/svg"><rect x="47.5" y="8.5" width="20.177" height="39" rx="10.088" transform="rotate(90 47.5 8.5)"/><rect x="44.471" y="11.529" width="14.118" height="14.118" rx="7.059" transform="rotate(90 44.47 11.53)" fill="#9A9A9A"/><path d="M18.588 22.327a3.738 3.738 0 1 0 0-7.477 3.738 3.738 0 0 0 0 7.477zM19.167 12.091v1.085a.565.565 0 0 1-.57.561h-.014a.565.565 0 0 1-.57-.562v-1.084c0-.31.25-.562.561-.562h.034c.31 0 .562.252.562.562h-.003zM14.404 13.585l.768.768a.567.567 0 0 1-.006.802l-.003.003-.005.005a.564.564 0 0 1-.802.006l-.768-.768a.562.562 0 0 1 0-.796l.022-.023c.22-.22.576-.22.797 0l-.003.003zM12.091 18.01h1.085c.313 0 .561.256.561.57V18.594c0 .313-.248.57-.562.57h-1.084a.562.562 0 0 1-.562-.562v-.034c0-.31.252-.561.562-.561v.002zM13.585 22.773l.768-.768a.567.567 0 0 1 .802.005l.003.003.005.006c.223.22.229.579.006.802l-.768.768a.562.562 0 0 1-.796 0l-.023-.023a.562.562 0 0 1 0-.796l.003.003zM18.01 25.085v-1.084c0-.314.256-.562.57-.562H18.594c.313 0 .57.248.57.562v1.084c0 .31-.251.562-.562.562h-.034a.562.562 0 0 1-.561-.562h.002zM22.773 23.591l-.768-.768a.567.567 0 0 1 .005-.801l.003-.003.006-.006a.564.564 0 0 1 .802-.006l.768.768c.22.22.22.577 0 .797l-.023.022a.562.562 0 0 1-.796 0l.003-.003zM25.085 19.167h-1.084a.565.565 0 0 1-.562-.57v-.014c0-.314.248-.57.562-.57h1.084c.31 0 .562.25.562.561v.034c0 .31-.251.562-.562.562v-.003zM23.592 14.404l-.768.768a.567.567 0 0 1-.802-.006l-.003-.003-.006-.005a.564.564 0 0 1-.005-.802l.768-.768c.22-.22.576-.22.796 0l.022.022c.22.22.22.576 0 .797l-.002-.003z" fill="#2E2E2E"/></svg>