<svg width="56" height="38" fill="none" xmlns="http://www.w3.org/2000/svg"><rect x="49" y="11" width="16" height="42" rx="8" transform="rotate(90 49 11)" fill="#C3C3C3"/><rect x="20.642" y="12.949" width="11.694" height="11.694" rx="5.847" transform="rotate(90 20.642 12.949)" fill="#9A9A9A"/><path d="M14.796 20.86a2.064 2.064 0 1 0 0-4.129 2.064 2.064 0 0 0 0 4.129zM15.115 15.208v.599c0 .173-.142.31-.315.31h-.008a.312.312 0 0 1-.314-.31v-.599a.31.31 0 0 1 .31-.31h.019a.31.31 0 0 1 .31.31h-.002zM12.485 16.033l.424.424a.313.313 0 0 1-.003.443l-.002.001-.003.003a.312.312 0 0 1-.442.004l-.425-.425a.31.31 0 0 1 0-.44l.013-.012a.31.31 0 0 1 .44 0l-.002.002zM11.208 18.476h.599c.173 0 .31.142.31.315v.008a.312.312 0 0 1-.31.315h-.599a.31.31 0 0 1-.31-.31v-.02a.31.31 0 0 1 .31-.31v.002zM12.033 21.106l.424-.424a.313.313 0 0 1 .443.003l.001.002.004.003c.123.122.126.32.003.443l-.425.424a.31.31 0 0 1-.44 0l-.012-.012a.31.31 0 0 1 0-.44l.002.001zM14.476 22.383v-.598c0-.174.142-.31.315-.31h.008c.173 0 .315.136.315.31v.598a.31.31 0 0 1-.31.31h-.02a.31.31 0 0 1-.31-.31h.002zM17.106 21.558l-.424-.424a.313.313 0 0 1 .003-.442l.002-.002.003-.003a.312.312 0 0 1 .443-.003l.424.424a.31.31 0 0 1 0 .44l-.013.012a.31.31 0 0 1-.44 0l.002-.002zM18.383 19.115h-.598a.312.312 0 0 1-.31-.315v-.007c0-.174.136-.315.31-.315h.598a.31.31 0 0 1 .31.31v.019a.31.31 0 0 1-.31.31v-.002zM17.558 16.485l-.424.424a.313.313 0 0 1-.442-.003l-.002-.002-.003-.003a.311.311 0 0 1-.003-.442l.424-.424a.31.31 0 0 1 .44 0l.012.012a.31.31 0 0 1 0 .44l-.002-.002z" fill="#2E2E2E"/><path d="M26.055 19.693V20h-1.422v-.307h1.422zm-1.348-2.537V20h-.377v-2.844h.377zm2.117.73V20h-.363v-2.113h.363zm-.39-.56c0-.058.017-.108.052-.148.037-.04.09-.06.16-.06s.122.02.159.06a.21.21 0 0 1 .056.148.204.204 0 0 1-.056.145c-.037.039-.09.058-.159.058-.07 0-.123-.02-.16-.058a.213.213 0 0 1-.052-.145zm2.34.56h.328v2.07a.942.942 0 0 1-.114.476.737.737 0 0 1-.316.299c-.134.068-.29.103-.465.103a1.138 1.138 0 0 1-.547-.15.723.723 0 0 1-.236-.217l.19-.215c.088.107.18.18.277.223a.732.732 0 0 0 .289.062.641.641 0 0 0 .297-.064.45.45 0 0 0 .193-.192.62.62 0 0 0 .07-.308v-1.621l.033-.465zm-1.456 1.08v-.04c0-.162.02-.308.057-.44a1.06 1.06 0 0 1 .166-.341.746.746 0 0 1 .611-.297c.133 0 .249.023.348.07.1.046.185.113.254.201.07.087.126.193.166.317.04.123.068.263.084.42v.18a1.837 1.837 0 0 1-.084.417.984.984 0 0 1-.166.317.694.694 0 0 1-.254.2.842.842 0 0 1-.352.07.735.735 0 0 1-.605-.306 1.066 1.066 0 0 1-.168-.34 1.543 1.543 0 0 1-.057-.427zm.362-.04v.04c0 .106.01.205.03.298a.811.811 0 0 0 .1.244c.046.07.104.126.174.166a.51.51 0 0 0 .252.058c.12 0 .22-.025.297-.076a.551.551 0 0 0 .186-.2c.047-.084.083-.175.11-.272v-.471a.956.956 0 0 0-.067-.207.636.636 0 0 0-.114-.18.49.49 0 0 0-.17-.127.564.564 0 0 0-.238-.047.5.5 0 0 0-.256.063.5.5 0 0 0-.174.168.81.81 0 0 0-.1.246 1.35 1.35 0 0 0-.03.297zM30.012 17v3h-.362v-3h.362zm-.086 1.863-.15-.006c0-.144.022-.278.064-.4a1 1 0 0 1 .176-.322.783.783 0 0 1 .619-.287c.104 0 .198.014.281.043a.51.51 0 0 1 .213.132c.06.062.105.141.137.239.03.096.047.214.047.353V20h-.364v-1.389a.61.61 0 0 0-.049-.265.3.3 0 0 0-.142-.147.513.513 0 0 0-.23-.047.535.535 0 0 0-.436.213.784.784 0 0 0-.166.498zm2.812-.976v.277h-1.142v-.277h1.142zm-.756-.514h.362v2.104c0 .071.01.125.033.162.022.036.05.06.086.072a.353.353 0 0 0 .113.018.594.594 0 0 0 .17-.024l.002.295a.844.844 0 0 1-.113.025.862.862 0 0 1-.166.014.562.562 0 0 1-.244-.053.392.392 0 0 1-.178-.175.737.737 0 0 1-.065-.336v-2.102zm2.346-.217h.365l.932 2.319.93-2.319h.367L35.766 20h-.285l-1.153-2.844zm-.119 0h.322l.053 1.735V20h-.375v-2.844zm2.508 0h.322V20h-.375v-1.11l.053-1.734zm.834 1.81v-.044c0-.152.022-.294.066-.424.044-.132.108-.245.192-.342a.854.854 0 0 1 .302-.226.94.94 0 0 1 .399-.082c.148 0 .282.027.4.082a.85.85 0 0 1 .305.226.99.99 0 0 1 .193.342c.044.13.067.271.067.424v.045c0 .152-.023.293-.067.424-.044.13-.108.244-.193.341a.885.885 0 0 1-.701.307.964.964 0 0 1-.4-.08.905.905 0 0 1-.305-.227 1.033 1.033 0 0 1-.192-.341 1.308 1.308 0 0 1-.066-.424zm.361-.044v.045c0 .105.013.205.037.299a.79.79 0 0 0 .111.246c.051.071.114.128.19.17a.55.55 0 0 0 .264.06c.099 0 .185-.02.26-.06a.543.543 0 0 0 .187-.17.787.787 0 0 0 .111-.246c.026-.094.04-.194.04-.3v-.044c0-.104-.014-.203-.04-.295a.76.76 0 0 0-.113-.248.527.527 0 0 0-.45-.234.534.534 0 0 0-.261.062.563.563 0 0 0-.188.172.787.787 0 0 0-.11.248c-.026.092-.038.19-.038.295zm3.348.668V17h.363v3h-.332l-.031-.41zm-1.422-.623v-.041c0-.162.02-.308.059-.44.04-.133.096-.246.17-.341a.75.75 0 0 1 .607-.297c.133 0 .248.023.348.07.1.046.184.113.253.201.07.087.126.193.166.317.04.123.069.263.084.42v.18a1.837 1.837 0 0 1-.084.417.986.986 0 0 1-.166.317.695.695 0 0 1-.253.2.843.843 0 0 1-.352.07.726.726 0 0 1-.34-.081.802.802 0 0 1-.264-.225 1.094 1.094 0 0 1-.17-.34 1.495 1.495 0 0 1-.058-.427zm.363-.041v.04c0 .106.01.205.031.298a.78.78 0 0 0 .102.244c.046.07.103.126.174.166a.51.51 0 0 0 .252.058c.12 0 .218-.025.295-.076a.568.568 0 0 0 .187-.2c.047-.084.084-.175.11-.272v-.471a1.044 1.044 0 0 0-.069-.207.636.636 0 0 0-.113-.18.49.49 0 0 0-.17-.127.551.551 0 0 0-.236-.047.5.5 0 0 0-.256.063.5.5 0 0 0-.174.168.778.778 0 0 0-.102.246 1.35 1.35 0 0 0-.03.297zm2.861 1.113a1.04 1.04 0 0 1-.4-.074.906.906 0 0 1-.502-.537 1.188 1.188 0 0 1-.068-.41v-.082c0-.172.025-.325.076-.46.05-.135.12-.25.207-.343a.887.887 0 0 1 .297-.213.852.852 0 0 1 .344-.072.9.9 0 0 1 .39.078c.11.052.201.125.272.219.07.092.122.201.156.328.034.125.05.261.05.41v.162h-1.577v-.295h1.216v-.027a.9.9 0 0 0-.058-.274.491.491 0 0 0-.156-.219.456.456 0 0 0-.293-.085.491.491 0 0 0-.405.205.765.765 0 0 0-.115.248c-.027.097-.04.21-.04.338v.082c0 .1.013.194.04.283.029.087.07.164.123.23a.59.59 0 0 0 .197.157.602.602 0 0 0 .266.056.629.629 0 0 0 .324-.078.802.802 0 0 0 .233-.209l.218.174a1.012 1.012 0 0 1-.173.197.83.83 0 0 1-.26.152 1.007 1.007 0 0 1-.361.06z" fill="#2E2E2E"/></svg>