<svg width="56" height="38" fill="none" xmlns="http://www.w3.org/2000/svg"><circle cx="28" cy="19" r="11" fill="#C3C3C3"/><path d="M28 22.495a3.495 3.495 0 1 0 0-6.99 3.495 3.495 0 0 0 0 6.99zM28.541 12.925v1.014c0 .293-.24.525-.533.525H27.995a.528.528 0 0 1-.534-.525v-1.014c0-.29.235-.525.526-.525h.032c.29 0 .525.235.525.525h-.003zM24.088 14.322l.718.718a.53.53 0 0 1-.006.75l-.002.002-.006.006a.527.527 0 0 1-.75.005l-.717-.718a.526.526 0 0 1 0-.745l.02-.02a.526.526 0 0 1 .745 0l-.002.002zM21.925 18.459h1.014c.293 0 .526.24.526.533V19.005a.528.528 0 0 1-.526.534h-1.014a.525.525 0 0 1-.525-.526v-.032c0-.29.235-.525.525-.525v.003zM23.322 22.913l.718-.719a.53.53 0 0 1 .75.006l.002.002.006.006a.528.528 0 0 1 .005.75l-.718.717a.526.526 0 0 1-.745 0l-.02-.02a.526.526 0 0 1 0-.745l.002.003zM27.459 25.075V24.06c0-.293.24-.526.533-.526H28.005c.293 0 .534.233.534.526v1.014c0 .29-.235.525-.526.525h-.032a.525.525 0 0 1-.525-.525h.003zM31.913 23.678l-.719-.718a.53.53 0 0 1 .006-.75l.002-.002.006-.006a.528.528 0 0 1 .75-.005l.717.718a.526.526 0 0 1 0 .745l-.02.02a.526.526 0 0 1-.745 0l.003-.002zM34.075 19.541H33.06a.528.528 0 0 1-.525-.533V18.995c0-.293.232-.534.525-.534h1.014c.29 0 .525.235.525.526v.032c0 .29-.235.525-.525.525v-.003zM32.678 15.088l-.718.718a.53.53 0 0 1-.75-.006l-.003-.002-.005-.006a.528.528 0 0 1-.005-.75l.718-.717a.526.526 0 0 1 .745 0l.02.02a.526.526 0 0 1 0 .745l-.002-.002z" fill="#2E2E2E"/></svg>