<svg width="56" height="38" fill="none" xmlns="http://www.w3.org/2000/svg"><rect x="19" y="3" width="18.286" height="32.001" rx="9.143" fill="#C3C3C3"/><g clip-path="url(#a)" fill="#2E2E2E"><path d="M28.143 21.906a2.905 2.905 0 1 0 0-5.81 2.905 2.905 0 0 0 0 5.81zM28.593 13.951v.843a.44.44 0 0 1-.443.437h-.011a.44.44 0 0 1-.444-.437v-.843c0-.241.196-.436.437-.436h.026c.242 0 .437.195.437.436h-.002zM24.891 15.112l.597.597a.44.44 0 0 1-.004.623l-.003.002-.004.005a.438.438 0 0 1-.623.004l-.597-.597a.437.437 0 0 1 0-.619l.017-.017a.437.437 0 0 1 .62 0l-.003.002zM23.094 18.55h.843c.243 0 .436.2.436.444v.011a.44.44 0 0 1-.436.443h-.843a.436.436 0 0 1-.437-.437v-.026c0-.241.196-.437.437-.437v.003zM24.255 22.252l.597-.596a.44.44 0 0 1 .623.004l.002.002.004.005c.174.17.178.45.005.623l-.597.597a.437.437 0 0 1-.619 0l-.017-.018a.437.437 0 0 1 0-.619l.002.002zM27.693 24.05v-.843c0-.244.2-.437.444-.437h.011a.44.44 0 0 1 .443.437v.842a.436.436 0 0 1-.437.437h-.026a.436.436 0 0 1-.437-.437h.002zM31.395 22.889l-.597-.597a.44.44 0 0 1 .005-.623l.002-.003.004-.004a.438.438 0 0 1 .623-.004l.597.596a.437.437 0 0 1 0 .62l-.017.017a.437.437 0 0 1-.62 0l.003-.002zM33.192 19.45h-.843a.44.44 0 0 1-.436-.443v-.011a.44.44 0 0 1 .436-.443h.843c.242 0 .437.195.437.436v.027a.436.436 0 0 1-.437.436v-.002zM32.031 15.748l-.596.597a.44.44 0 0 1-.624-.004l-.002-.002-.004-.005a.438.438 0 0 1-.005-.623l.597-.597a.437.437 0 0 1 .619 0l.018.018a.437.437 0 0 1 0 .619l-.003-.002z"/></g><defs><clipPath id="a"><path fill="#fff" transform="translate(22.657 13.515)" d="M0 0h10.971v10.971H0z"/></clipPath></defs></svg>