<svg xmlns="http://www.w3.org/2000/svg" viewBox="0 0 311.4 311.4" xmlns:v="https://vecta.io/nano"><linearGradient id="A" gradientUnits="userSpaceOnUse" x1="263.487" y1="286.751" x2="49.417" y2="26.522"><stop offset="0" stop-color="#4c6a00"/><stop offset=".297" stop-color="#4f6d00"/><stop offset=".478" stop-color="#577500"/><stop offset=".628" stop-color="#658300"/><stop offset=".761" stop-color="#799800"/><stop offset=".881" stop-color="#93b200"/><stop offset=".993" stop-color="#b3d200"/><stop offset="1" stop-color="#b5d400"/></linearGradient><path d="M311.1 170c-.4 9.5-1.1 19.1-2.1 28.6a469.31 469.31 0 0 1-4.2 28.6c0 .1 0 .3-.1.4-7.2 39.1-37.8 69.8-76.9 77-47.7 8.8-96.6 8.8-144.2-.1-15.9-2.9-30.7-9.8-43.2-20-17.7-14.3-29.6-34.5-33.8-56.9 0-.1 0-.3-.1-.4-1.8-9.5-3.1-19.1-4.2-28.6S.6 179.5.2 170c-.2-5.9-.2-11.8-.2-17.7a198.28 198.28 0 0 1 .3-10.9c.4-9.5 1.1-19.1 2.1-28.6.8-7.5 1.9-15 3.1-22.5l.3-1.7c.3-1.5.5-3 .8-4.5 0-.2 0-.3.1-.4 1.1-6.1 2.8-12.1 5.1-17.9 1.4-3.5 3-7 4.8-10.4C30.4 29.8 55 11.9 83.6 6.6c47.7-8.8 96.6-8.8 144.2.1 28.5 5.3 53.2 23.2 67 48.7 4.8 8.8 8.2 18.4 10 28.2 0 .1.1.3.1.4.2 1.3.5 2.7.7 4.1l.3 1.7c1.3 7.6 2.4 15.2 3.2 22.9 1.1 9.5 1.7 19.1 2.1 28.6l.2 10.5c0 6.1-.1 12.2-.3 18.2h0z" fill="url(#A)"/><path d="M305.9 89.8c-45.2 28-97.3 42.7-150.5 42.6-52.9.1-104.8-14.6-149.9-42.3l.3-1.7c.3-1.5.5-3 .8-4.5 0-.2 0-.3.1-.4 1.1-6.1 2.8-12.1 5.1-17.9 1.4-3.5 3-7 4.8-10.4C30.4 29.8 55 11.9 83.6 6.6c47.7-8.8 96.6-8.8 144.2.1 28.5 5.3 53.2 23.2 67 48.7 4.8 8.8 8.2 18.4 10 28.2 0 .1.1.3.1.4.2 1.3.5 2.7.7 4.1l.3 1.7h0z" opacity=".15" fill="#fff" enable-background="new"/><g fill="#efefef"><circle cx="102.5" cy="95.8" r="5.6"/><circle cx="118.8" cy="95.8" r="5.6"/><circle cx="135.2" cy="95.8" r="5.6"/><path d="M190.2 129.4c0 2.1-1.4 3.9-3.4 4.5-.4.1-.8.2-1.2.2h-84.1c-2.6 0-4.6-2.1-4.6-4.6 0-2.6 2.1-4.6 4.6-4.6h84.1c2.5-.2 4.6 1.9 4.6 4.5zm-54.3 20.9c-1.5 2.7-2.6 5.7-3.5 9.2h-30.8c-2.6 0-4.6-2.1-4.6-4.6 0-2.6 2.1-4.6 4.6-4.6h34.3zm-6 25.6l-.4 9.2h-28c-2.6 0-4.6-2.1-4.6-4.6 0-2.6 2.1-4.6 4.6-4.6h28.4zm82-79.5l-23.7-23.7c-5.2-5.2-12.1-8-19.4-8H96.6c-15.1 0-27.5 12.3-27.5 27.5V197c0 15.2 12.3 27.5 27.5 27.5h34.3c-.5-3.5-.9-7.3-1.1-11.5H96.6a15.88 15.88 0 0 1-15.9-15.9V92.2a15.88 15.88 0 0 1 15.9-15.9h72.3c4.3 0 8.2 1.7 11.3 4.7l23.7 23.7c3 3 4.7 7 4.7 11.2v18.4c4.2.2 8.1.6 11.5 1.1v-19.5c-.1-7.4-3-14.3-8.2-19.5z"/><path d="M186.8 133.8c-.4.1-.8.2-1.2.2H179l7.8-.2zm4.2 10.3c-44.4 0-51.3 6.9-51.3 51.3s6.9 51.3 51.3 51.3 51.3-6.9 51.3-51.3c-.1-44.4-7-51.3-51.3-51.3zm23.3 51.6h-10.1c-1.5 0-2.8 1.2-2.8 2.8v27.1c0 1.5-1.2 2.8-2.8 2.8h-15.4c-1.5 0-2.8-1.2-2.8-2.8v-27.1c0-1.5-1.2-2.8-2.8-2.8h-10.1c-2.4 0-3.6-2.8-2.1-4.5l23.4-27.7a2.75 2.75 0 0 1 4.2 0l23.4 27.7c1.6 1.8.3 4.5-2.1 4.5z"/></g></svg>