<svg width="46" height="46" viewBox="0 0 46 46" fill="none" xmlns="http://www.w3.org/2000/svg">
<circle cx="22.9667" cy="22.9667" r="22.6133" stroke="#A5A5A5" stroke-width="0.706667"/>
<path d="M29.5029 11.1784C28.35 11.0561 27.1913 10.9966 26.032 11.0001C22.1886 11.0001 19.8 13.448 19.8 17.3884V20.0637H16.5714C16.4199 20.0637 16.2745 20.1239 16.1674 20.231C16.0602 20.3382 16 20.4835 16 20.6351V25.0348C16 25.1864 16.0602 25.3317 16.1674 25.4389C16.2745 25.546 16.4199 25.6062 16.5714 25.6062H19.8V34.4286C19.8 34.5801 19.8602 34.7255 19.9674 34.8326C20.0745 34.9398 20.2199 35 20.3714 35H24.9177C25.0693 35 25.2146 34.9398 25.3218 34.8326C25.4289 34.7255 25.4891 34.5801 25.4891 34.4286V25.6062H28.7074C28.8462 25.6063 28.9802 25.5559 29.0845 25.4644C29.1888 25.3729 29.2563 25.2467 29.2743 25.1091L29.8423 20.7093C29.8529 20.6287 29.8461 20.5467 29.8224 20.4689C29.7988 20.3911 29.7588 20.3192 29.7051 20.2581C29.6515 20.197 29.5854 20.148 29.5113 20.1145C29.4372 20.0809 29.3568 20.0636 29.2754 20.0637H25.4891V17.8249C25.4891 16.7164 25.712 16.2536 27.0983 16.2536H29.4286C29.5801 16.2536 29.7255 16.1934 29.8326 16.0862C29.9398 15.9791 30 15.8337 30 15.6822V11.7453C30.0001 11.6065 29.9497 11.4725 29.8582 11.3682C29.7667 11.2639 29.6404 11.1965 29.5029 11.1784ZM28.8571 15.1096L27.0971 15.1108C24.632 15.1108 24.3463 16.6604 24.3463 17.8249V20.6362C24.3463 20.7875 24.4063 20.9327 24.5132 21.0398C24.6202 21.147 24.7652 21.2073 24.9166 21.2076H28.6263L28.2046 24.4646H24.9177C24.7662 24.4646 24.6208 24.5248 24.5137 24.6319C24.4065 24.7391 24.3463 24.8844 24.3463 25.036V33.8561H20.9429V25.036C20.9429 24.8844 20.8827 24.7391 20.7755 24.6319C20.6683 24.5248 20.523 24.4646 20.3714 24.4646H17.144V21.2076H20.3714C20.523 21.2076 20.6683 21.1474 20.7755 21.0402C20.8827 20.9331 20.9429 20.7877 20.9429 20.6362V17.3884C20.9429 14.104 22.8457 12.1429 26.032 12.1429C27.1851 12.1429 28.2263 12.2058 28.8571 12.2607V15.1096Z" fill="#A5A5A5"/>
</svg>
