<svg width="47" height="46" viewBox="0 0 47 46" fill="none" xmlns="http://www.w3.org/2000/svg">
<circle cx="23.4667" cy="22.9667" r="22.6133" stroke="#A5A5A5" stroke-width="0.706667"/>
<path d="M23.5 28C24.5609 28 25.5783 27.5786 26.3284 26.8284C27.0786 26.0783 27.5 25.0609 27.5 24C27.5 22.9391 27.0786 21.9217 26.3284 21.1716C25.5783 20.4214 24.5609 20 23.5 20C22.4391 20 21.4217 20.4214 20.6716 21.1716C19.9214 21.9217 19.5 22.9391 19.5 24C19.5 25.0609 19.9214 26.0783 20.6716 26.8284C21.4217 27.5786 22.4391 28 23.5 28Z" stroke="#A5A5A5" stroke-width="1.5" stroke-linecap="round" stroke-linejoin="round"/>
<path d="M14.5 28V20C14.5 18.6739 15.0268 17.4021 15.9645 16.4645C16.9021 15.5268 18.1739 15 19.5 15H27.5C28.8261 15 30.0979 15.5268 31.0355 16.4645C31.9732 17.4021 32.5 18.6739 32.5 20V28C32.5 29.3261 31.9732 30.5979 31.0355 31.5355C30.0979 32.4732 28.8261 33 27.5 33H19.5C18.1739 33 16.9021 32.4732 15.9645 31.5355C15.0268 30.5979 14.5 29.3261 14.5 28Z" stroke="#A5A5A5" stroke-width="1.5"/>
<path d="M29 18.51L29.01 18.499" stroke="#A5A5A5" stroke-width="1.5" stroke-linecap="round" stroke-linejoin="round"/>
</svg>
