<svg width="47" height="46" viewBox="0 0 47 46" fill="none" xmlns="http://www.w3.org/2000/svg">
<circle cx="23.4667" cy="22.9667" r="22.6133" stroke="#A5A5A5" stroke-width="0.706667"/>
<path d="M31.227 14.3164H15.707C14.8864 14.3164 14.2207 14.9821 14.2207 15.8028V31.3227C14.2207 32.1433 14.8864 32.809 15.707 32.809H31.227C32.0476 32.809 32.7133 32.1433 32.7133 31.3227V15.8028C32.7133 14.9821 32.0476 14.3164 31.227 14.3164ZM31.227 31.3296C20.8757 31.3273 15.7001 31.325 15.7001 31.3227C15.7024 20.9714 15.7047 15.7958 15.707 15.7958C26.0583 15.7981 31.2339 15.8004 31.2339 15.8028C31.2316 26.154 31.2293 31.3296 31.227 31.3296ZM16.9622 21.2488H19.7061V30.0745H16.9622V21.2488ZM18.3353 20.0422C19.2114 20.0422 19.9257 19.3302 19.9257 18.4518C19.9257 18.243 19.8845 18.0362 19.8046 17.8432C19.7247 17.6503 19.6076 17.4749 19.4599 17.3273C19.3122 17.1796 19.1369 17.0624 18.9439 16.9825C18.751 16.9026 18.5442 16.8615 18.3353 16.8615C18.1265 16.8615 17.9197 16.9026 17.7267 16.9825C17.5338 17.0624 17.3584 17.1796 17.2108 17.3273C17.0631 17.4749 16.9459 17.6503 16.866 17.8432C16.7861 18.0362 16.7449 18.243 16.7449 18.4518C16.7426 19.3302 17.4546 20.0422 18.3353 20.0422ZM24.1674 25.7079C24.1674 24.5567 24.387 23.4425 25.8133 23.4425C27.2187 23.4425 27.2395 24.7578 27.2395 25.7818V30.0745H29.9811V25.234C29.9811 22.8577 29.4679 21.0292 26.6917 21.0292C25.3579 21.0292 24.4633 21.762 24.0958 22.4555H24.0588V21.2488H21.4259V30.0745H24.1674V25.7079Z" fill="#A5A5A5"/>
</svg>
