<svg width="18" height="24" viewBox="0 0 18 24" fill="none" xmlns="http://www.w3.org/2000/svg">
<path fill-rule="evenodd" clip-rule="evenodd" d="M9 22.3867L9.84133 21.4387C10.796 20.3453 11.6547 19.308 12.4187 18.3213L13.0493 17.4893C15.6827 13.9413 17 11.1253 17 9.044C17 4.60133 13.4187 1 9 1C4.58133 1 1 4.60133 1 9.044C1 11.1253 2.31733 13.9413 4.95067 17.4893L5.58133 18.3213C6.67125 19.7179 7.81156 21.073 9 22.3867Z" stroke="#003E39" stroke-width="2" stroke-linecap="round" stroke-linejoin="round"/>
<path d="M9.00033 12.3337C10.8413 12.3337 12.3337 10.8413 12.3337 9.00033C12.3337 7.15938 10.8413 5.66699 9.00033 5.66699C7.15938 5.66699 5.66699 7.15938 5.66699 9.00033C5.66699 10.8413 7.15938 12.3337 9.00033 12.3337Z" stroke="#003E39" stroke-width="2" stroke-linecap="round" stroke-linejoin="round"/>
</svg>
