<svg width="18" height="18" viewBox="0 0 18 18" fill="none" xmlns="http://www.w3.org/2000/svg">
<mask id="path-1-inside-1_952_362" fill="white">
<path d="M17.2282 12.3335L12.8897 10.3892C12.6932 10.305 12.4787 10.2711 12.2657 10.2907C12.0528 10.3102 11.848 10.3826 11.6701 10.5012C11.652 10.5128 11.6349 10.5257 11.6187 10.5398L9.35114 12.4685C9.32762 12.4813 9.30142 12.4885 9.27465 12.4894C9.24787 12.4904 9.22123 12.4851 9.19685 12.474C7.73935 11.7705 6.22951 10.2698 5.52326 8.83251C5.5115 8.8085 5.50538 8.78211 5.50538 8.75537C5.50538 8.72863 5.5115 8.70224 5.52326 8.67822L7.45832 6.38222C7.47221 6.36523 7.48509 6.34745 7.4969 6.32895C7.61389 6.15033 7.68456 5.94538 7.70251 5.73261C7.72047 5.51984 7.68516 5.30594 7.59976 5.11024L5.66928 0.779057C5.55965 0.523383 5.37006 0.310161 5.12895 0.171393C4.88785 0.0326249 4.60824 -0.0242032 4.3321 0.00943748C3.13196 0.167216 2.03033 0.756591 1.23307 1.66743C0.435819 2.57826 -0.0025051 3.74823 1.07704e-05 4.9587C1.07704e-05 12.1498 5.85021 18 13.0413 18C14.2517 18.0023 15.4215 17.5639 16.3323 16.7667C17.2431 15.9695 17.8326 14.868 17.9905 13.6679C18.0241 13.393 17.968 13.1147 17.8307 12.8743C17.6933 12.6338 17.4821 12.4442 17.2282 12.3335ZM13.0413 16.8979C6.45819 16.8979 1.10209 11.5418 1.10209 4.9587C1.09902 4.01636 1.43914 3.10513 2.05892 2.39527C2.67869 1.68541 3.53571 1.22548 4.46985 1.10142H4.49098C4.52799 1.10211 4.56393 1.11396 4.59408 1.13543C4.62423 1.1569 4.6472 1.18698 4.65996 1.22173L6.59778 5.54831C6.60884 5.57237 6.61456 5.59853 6.61456 5.625C6.61456 5.65147 6.60884 5.67763 6.59778 5.70169L4.65905 8.0032C4.64458 8.01963 4.63138 8.03713 4.61955 8.05555C4.49824 8.24075 4.4268 8.45414 4.41216 8.67505C4.39752 8.89597 4.44017 9.11692 4.53598 9.31651C5.3506 10.9843 7.03127 12.6521 8.71745 13.4668C8.91821 13.562 9.14023 13.6037 9.36187 13.5876C9.58351 13.5715 9.7972 13.4982 9.98208 13.3749C9.99953 13.363 10.017 13.3501 10.0335 13.3364L12.3001 11.4077C12.3225 11.3957 12.3472 11.3886 12.3726 11.387C12.3979 11.3855 12.4234 11.3894 12.4471 11.3985L16.7865 13.3428C16.8219 13.3579 16.8517 13.3837 16.8717 13.4167C16.8916 13.4497 16.9007 13.4881 16.8976 13.5265C16.7742 14.461 16.3147 15.3187 15.605 15.9392C14.8953 16.5596 13.984 16.9004 13.0413 16.8979Z"/>
</mask>
<path d="M17.2282 12.3335L12.8897 10.3892C12.6932 10.305 12.4787 10.2711 12.2657 10.2907C12.0528 10.3102 11.848 10.3826 11.6701 10.5012C11.652 10.5128 11.6349 10.5257 11.6187 10.5398L9.35114 12.4685C9.32762 12.4813 9.30142 12.4885 9.27465 12.4894C9.24787 12.4904 9.22123 12.4851 9.19685 12.474C7.73935 11.7705 6.22951 10.2698 5.52326 8.83251C5.5115 8.8085 5.50538 8.78211 5.50538 8.75537C5.50538 8.72863 5.5115 8.70224 5.52326 8.67822L7.45832 6.38222C7.47221 6.36523 7.48509 6.34745 7.4969 6.32895C7.61389 6.15033 7.68456 5.94538 7.70251 5.73261C7.72047 5.51984 7.68516 5.30594 7.59976 5.11024L5.66928 0.779057C5.55965 0.523383 5.37006 0.310161 5.12895 0.171393C4.88785 0.0326249 4.60824 -0.0242032 4.3321 0.00943748C3.13196 0.167216 2.03033 0.756591 1.23307 1.66743C0.435819 2.57826 -0.0025051 3.74823 1.07704e-05 4.9587C1.07704e-05 12.1498 5.85021 18 13.0413 18C14.2517 18.0023 15.4215 17.5639 16.3323 16.7667C17.2431 15.9695 17.8326 14.868 17.9905 13.6679C18.0241 13.393 17.968 13.1147 17.8307 12.8743C17.6933 12.6338 17.4821 12.4442 17.2282 12.3335ZM13.0413 16.8979C6.45819 16.8979 1.10209 11.5418 1.10209 4.9587C1.09902 4.01636 1.43914 3.10513 2.05892 2.39527C2.67869 1.68541 3.53571 1.22548 4.46985 1.10142H4.49098C4.52799 1.10211 4.56393 1.11396 4.59408 1.13543C4.62423 1.1569 4.6472 1.18698 4.65996 1.22173L6.59778 5.54831C6.60884 5.57237 6.61456 5.59853 6.61456 5.625C6.61456 5.65147 6.60884 5.67763 6.59778 5.70169L4.65905 8.0032C4.64458 8.01963 4.63138 8.03713 4.61955 8.05555C4.49824 8.24075 4.4268 8.45414 4.41216 8.67505C4.39752 8.89597 4.44017 9.11692 4.53598 9.31651C5.3506 10.9843 7.03127 12.6521 8.71745 13.4668C8.91821 13.562 9.14023 13.6037 9.36187 13.5876C9.58351 13.5715 9.7972 13.4982 9.98208 13.3749C9.99953 13.363 10.017 13.3501 10.0335 13.3364L12.3001 11.4077C12.3225 11.3957 12.3472 11.3886 12.3726 11.387C12.3979 11.3855 12.4234 11.3894 12.4471 11.3985L16.7865 13.3428C16.8219 13.3579 16.8517 13.3837 16.8717 13.4167C16.8916 13.4497 16.9007 13.4881 16.8976 13.5265C16.7742 14.461 16.3147 15.3187 15.605 15.9392C14.8953 16.5596 13.984 16.9004 13.0413 16.8979Z" fill="#111111"/>
<path d="M17.2282 12.3335L16.4103 14.1586L16.4195 14.1627L16.4287 14.1667L17.2282 12.3335ZM12.8897 10.3892L13.7076 8.56409L13.6926 8.55735L13.6774 8.55085L12.8897 10.3892ZM11.6701 10.5012L12.7505 12.1843L12.7651 12.1749L12.7796 12.1653L11.6701 10.5012ZM11.6187 10.5398L12.9144 12.0633L12.9232 12.0558L12.9319 12.0483L11.6187 10.5398ZM9.35114 12.4685L10.3086 14.2244L10.4898 14.1256L10.6469 13.9919L9.35114 12.4685ZM9.19685 12.474L8.32748 14.2751L8.34718 14.2846L8.36708 14.2937L9.19685 12.474ZM5.52326 8.83251L3.72705 9.71209L3.72825 9.71453L5.52326 8.83251ZM5.50538 8.75537H7.50538H5.50538ZM5.52326 8.67822L3.99396 7.38933L3.83532 7.57756L3.72706 7.79864L5.52326 8.67822ZM7.45832 6.38222L8.98762 7.67111L8.99736 7.65955L9.00693 7.64785L7.45832 6.38222ZM7.4969 6.32895L5.82382 5.23314L5.81748 5.24281L5.81126 5.25255L7.4969 6.32895ZM7.59976 5.11024L9.43283 4.31034L9.4297 4.30317L9.42652 4.29602L7.59976 5.11024ZM5.66928 0.779057L3.83114 1.56724L3.83674 1.58029L3.84252 1.59327L5.66928 0.779057ZM4.3321 0.00943748L4.09024 -1.97589L4.08082 -1.97474L4.07141 -1.9735L4.3321 0.00943748ZM1.07704e-05 4.9587H2.00002L2.00001 4.95454L1.07704e-05 4.9587ZM13.0413 18L13.0451 16H13.0413V18ZM17.9905 13.6679L19.9734 13.9289L19.9746 13.9196L19.9758 13.9104L17.9905 13.6679ZM13.0413 16.8979L13.0466 14.8979H13.0413V16.8979ZM1.10209 4.9587H3.1021L3.10208 4.95218L1.10209 4.9587ZM4.46985 1.10142V-0.898584H4.33762L4.20654 -0.881175L4.46985 1.10142ZM4.49098 1.10142L4.52831 -0.898235L4.50965 -0.898584H4.49098V1.10142ZM4.65996 1.22173L2.78263 1.91138L2.80645 1.97621L2.83468 2.03925L4.65996 1.22173ZM6.59778 5.54831L4.7725 6.36583L4.77642 6.37459L4.78043 6.38331L6.59778 5.54831ZM6.59778 5.70169L8.1274 6.9902L8.302 6.78294L8.41514 6.53668L6.59778 5.70169ZM4.65905 8.0032L6.16022 9.32475L6.17462 9.30838L6.18866 9.29171L4.65905 8.0032ZM4.61955 8.05555L6.29257 9.15145L6.29759 9.14379L6.30254 9.13608L4.61955 8.05555ZM4.53598 9.31651L2.73292 10.1821L2.73889 10.1943L4.53598 9.31651ZM8.71745 13.4668L7.8474 15.2677L7.8599 15.2736L8.71745 13.4668ZM9.98208 13.3749L11.0917 15.0389L11.1016 15.0323L11.1115 15.0255L9.98208 13.3749ZM10.0335 13.3364L11.3139 14.8728L11.3218 14.8662L11.3296 14.8596L10.0335 13.3364ZM12.3001 11.4077L11.3534 9.64596L11.166 9.74665L11.004 9.8845L12.3001 11.4077ZM12.4471 11.3985L13.2648 9.57335L13.2165 9.55168L13.167 9.53261L12.4471 11.3985ZM16.7865 13.3428L15.9687 15.168L15.9857 15.1756L16.0029 15.1829L16.7865 13.3428ZM16.8976 13.5265L18.8804 13.7883L18.8871 13.7375L18.8912 13.6864L16.8976 13.5265ZM18.0461 10.5083L13.7076 8.56409L12.0718 12.2143L16.4103 14.1586L18.0461 10.5083ZM13.6774 8.55085C13.1751 8.33561 12.627 8.24906 12.0828 8.29906L12.4487 12.2823C12.3304 12.2932 12.2112 12.2743 12.102 12.2276L13.6774 8.55085ZM12.0828 8.29906C11.5385 8.34906 11.0154 8.53402 10.5606 8.83718L12.7796 12.1653C12.6807 12.2312 12.567 12.2714 12.4487 12.2823L12.0828 8.29906ZM10.5897 8.81817C10.4899 8.88221 10.3949 8.95346 10.3054 9.03138L12.9319 12.0483C12.8748 12.098 12.8141 12.1435 12.7505 12.1843L10.5897 8.81817ZM10.3229 9.01636L8.05536 10.945L10.6469 13.9919L12.9144 12.0633L10.3229 9.01636ZM8.39367 10.7125C8.64273 10.5767 8.91992 10.5008 9.20326 10.4907L9.34603 14.4881C9.68293 14.4761 10.0125 14.3858 10.3086 14.2244L8.39367 10.7125ZM9.20326 10.4907C9.48666 10.4806 9.76855 10.5365 10.0266 10.6542L8.36708 14.2937C8.67391 14.4336 9.00907 14.5002 9.34603 14.4881L9.20326 10.4907ZM10.0662 10.6728C9.01009 10.163 7.82676 8.98535 7.31826 7.9505L3.72825 9.71453C4.63225 11.5543 6.46862 13.3779 8.32748 14.2751L10.0662 10.6728ZM7.31946 7.95293C7.44179 8.20275 7.50538 8.47722 7.50538 8.75537H3.50538C3.50538 9.087 3.58121 9.41425 3.72706 9.71209L7.31946 7.95293ZM7.50538 8.75537C7.50538 9.03353 7.44179 9.308 7.31946 9.5578L3.72706 7.79864C3.58121 8.09648 3.50538 8.42373 3.50538 8.75537H7.50538ZM7.05256 9.96711L8.98762 7.67111L5.92902 5.09333L3.99396 7.38933L7.05256 9.96711ZM9.00693 7.64785C9.07015 7.5705 9.12878 7.48953 9.18253 7.40535L5.81126 5.25255C5.84139 5.20537 5.87427 5.15997 5.90972 5.11659L9.00693 7.64785ZM9.16997 7.42477C9.46895 6.9683 9.64954 6.44455 9.69543 5.90081L5.7096 5.5644C5.71957 5.44621 5.75883 5.33236 5.82382 5.23314L9.16997 7.42477ZM9.69543 5.90081C9.74132 5.35707 9.65107 4.81047 9.43283 4.31034L5.76668 5.91013C5.71924 5.80142 5.69962 5.6826 5.7096 5.5644L9.69543 5.90081ZM9.42652 4.29602L7.49604 -0.0351576L3.84252 1.59327L5.773 5.92445L9.42652 4.29602ZM7.50743 -0.00912038C7.22727 -0.662497 6.74275 -1.20739 6.12661 -1.56201L4.13129 1.90479C3.99736 1.82771 3.89204 1.70926 3.83114 1.56724L7.50743 -0.00912038ZM6.12661 -1.56201C5.51047 -1.91663 4.79593 -2.06185 4.09024 -1.97589L4.57395 1.99476C4.42055 2.01345 4.26523 1.98188 4.13129 1.90479L6.12661 -1.56201ZM4.07141 -1.9735C2.38942 -1.75237 0.845488 -0.926367 -0.271857 0.350163L2.738 2.98469C3.21516 2.43955 3.8745 2.08681 4.59278 1.99237L4.07141 -1.9735ZM-0.271857 0.350163C-1.3892 1.62669 -2.00351 3.2664 -1.99998 4.96286L2.00001 4.95454C1.9985 4.23007 2.26084 3.52983 2.738 2.98469L-0.271857 0.350163ZM-1.99999 4.9587C-1.99999 13.2543 4.74563 20 13.0413 20V16C6.95478 16 2.00001 11.0452 2.00001 4.9587H-1.99999ZM13.0374 20C14.7337 20.0032 16.3732 19.3889 17.6496 18.2716L15.0151 15.2618C14.4699 15.739 13.7696 16.0014 13.0451 16L13.0374 20ZM17.6496 18.2716C18.926 17.1544 19.752 15.6107 19.9734 13.9289L16.0076 13.4069C15.9131 14.1252 15.5602 14.7846 15.0151 15.2618L17.6496 18.2716ZM19.9758 13.9104C20.0616 13.208 19.9183 12.4967 19.5673 11.8822L16.0941 13.8663C16.0178 13.7327 15.9866 13.5781 16.0053 13.4254L19.9758 13.9104ZM19.5673 11.8822C19.2163 11.2678 18.6764 10.7831 18.0278 10.5002L16.4287 14.1667C16.2877 14.1052 16.1703 13.9998 16.0941 13.8663L19.5673 11.8822ZM13.0413 14.8979C7.56276 14.8979 3.10209 10.4372 3.10209 4.9587H-0.897911C-0.897911 12.6464 5.35361 18.8979 13.0413 18.8979V14.8979ZM3.10208 4.95218C3.10059 4.49578 3.26532 4.05445 3.56549 3.71065L0.552341 1.07989C-0.387035 2.1558 -0.902554 3.53693 -0.897901 4.96522L3.10208 4.95218ZM3.56549 3.71065C3.86566 3.36685 4.28074 3.14409 4.73316 3.08401L4.20654 -0.881175C2.79068 -0.693133 1.49172 0.00397013 0.552341 1.07989L3.56549 3.71065ZM4.46985 3.10142H4.49098V-0.898584H4.46985V3.10142ZM4.45365 3.10107C4.08767 3.09423 3.7323 2.97698 3.43412 2.76469L5.75404 -0.493826C5.39556 -0.749055 4.96831 -0.890021 4.52831 -0.898235L4.45365 3.10107ZM3.43412 2.76469C3.13593 2.5524 2.90885 2.25496 2.78263 1.91138L6.5373 0.532077C6.38555 0.119 6.11254 -0.238593 5.75404 -0.493826L3.43412 2.76469ZM2.83468 2.03925L4.7725 6.36583L8.42307 4.73079L6.48525 0.404206L2.83468 2.03925ZM4.78043 6.38331C4.67114 6.14544 4.61456 5.88676 4.61456 5.625H8.61456C8.61456 5.31029 8.54654 4.9993 8.41514 4.71331L4.78043 6.38331ZM4.61456 5.625C4.61456 5.36324 4.67114 5.10456 4.78043 4.86669L8.41514 6.53668C8.54654 6.2507 8.61456 5.9397 8.61456 5.625H4.61456ZM5.06816 4.41317L3.12943 6.71468L6.18866 9.29171L8.1274 6.9902L5.06816 4.41317ZM3.15787 6.68165C3.07682 6.77373 3.00284 6.8718 2.93657 6.97502L6.30254 9.13608C6.25993 9.20246 6.21235 9.26553 6.16022 9.32475L3.15787 6.68165ZM2.94654 6.95964C2.63651 7.43292 2.45395 7.97824 2.41654 8.54279L6.40778 8.80732C6.39965 8.93004 6.35996 9.04857 6.29257 9.15145L2.94654 6.95964ZM2.41654 8.54279C2.37912 9.10733 2.48811 9.67197 2.73296 10.182L6.339 8.45099C6.39222 8.56186 6.41591 8.6846 6.40778 8.80732L2.41654 8.54279ZM2.73889 10.1943C3.75231 12.2691 5.76161 14.2599 7.84743 15.2676L9.58747 11.6659C8.30093 11.0444 6.94888 9.69954 6.33307 8.43875L2.73889 10.1943ZM7.8599 15.2736C8.37294 15.5171 8.94033 15.6235 9.50673 15.5823L9.21701 11.5928C9.34013 11.5839 9.46347 11.607 9.57499 11.6599L7.8599 15.2736ZM9.50673 15.5823C10.0731 15.5412 10.6192 15.354 11.0917 15.0389L8.87248 11.711C8.97519 11.6425 9.09389 11.6018 9.21701 11.5928L9.50673 15.5823ZM11.1115 15.0255C11.1669 14.9876 11.2373 14.9366 11.3139 14.8728L8.75314 11.7999C8.79666 11.7636 8.83214 11.7384 8.85271 11.7243L11.1115 15.0255ZM11.3296 14.8596L13.5962 12.9309L11.004 9.8845L8.73742 11.8131L11.3296 14.8596ZM13.2468 13.1695C13.0153 13.2939 12.7596 13.3668 12.4973 13.3832L12.2478 9.39094C11.9348 9.41051 11.6297 9.49749 11.3534 9.64596L13.2468 13.1695ZM12.4973 13.3832C12.235 13.3995 11.9723 13.3591 11.7271 13.2644L13.167 9.53261C12.8744 9.4197 12.5609 9.37138 12.2478 9.39094L12.4973 13.3832ZM11.6293 13.2237L15.9687 15.168L17.6043 11.5176L13.2648 9.57335L11.6293 13.2237ZM16.0029 15.1829C15.6523 15.0336 15.3577 14.7779 15.1605 14.452L18.5829 12.3814C18.3458 11.9896 17.9916 11.6822 17.5701 11.5027L16.0029 15.1829ZM15.1605 14.452C14.9633 14.1261 14.8736 13.7464 14.904 13.3666L18.8912 13.6864C18.9278 13.2298 18.8199 12.7733 18.5829 12.3814L15.1605 14.452ZM14.9148 13.2646C14.855 13.7174 14.6324 14.1329 14.2886 14.4335L16.9214 17.4449C17.997 16.5045 18.6934 15.2047 18.8804 13.7883L14.9148 13.2646ZM14.2886 14.4335C13.9448 14.734 13.5033 14.8991 13.0466 14.8979L13.0359 18.8979C14.4646 18.9017 15.8458 18.3852 16.9214 17.4449L14.2886 14.4335Z" fill="black" mask="url(#path-1-inside-1_952_362)"/>
</svg>
