<svg width="970" height="236" viewBox="0 0 970 236" fill="none" xmlns="http://www.w3.org/2000/svg">
<path d="M236.7 235.99H0.290039V0.379957C2.31004 0.249957 4.20004 0.029981 6.09004 0.029981C71 0.019981 135.91 -0.010019 200.83 0.029981C219.4 0.039981 236.67 17.2 236.68 35.7C236.72 102.46 236.71 169.22 236.7 235.99Z" fill="#141414"/>
<path d="M413.73 161.71L409.44 161.8V161.24C409.92 160.87 410.4 160.48 410.88 160.07C419.92 152.42 428.97 137.53 428.97 118.46C428.97 80.33 401.22 53.3899 362.65 51.4299C361.15 51.3499 359.63 51.3099 358.1 51.3099C356.57 51.3099 355.06 51.3499 353.56 51.4299C315.1 53.4099 286.67 80.52 286.67 119.02C286.67 156.83 308.52 180.22 342.08 185.43C345.36 185.94 348.75 186.28 352.25 186.43C353.8 186.5 355.38 186.54 356.98 186.54H437.16V161.24L413.73 161.71ZM325.42 139.78V139.77C322.5 133.94 320.9 127.05 320.9 119.39C320.9 96.74 336.57 80.47 357.47 80.14H358.1C372.42 80.14 383.9 87.11 390.13 98.33C390.17 98.39 390.21 98.4499 390.24 98.5099C390.24 98.5099 390.25 98.51 390.25 98.52C390.26 98.54 390.27 98.56 390.28 98.58C393.51 104.49 395.3 111.56 395.3 119.39C395.3 123.16 394.9 126.75 394.13 130.11V130.12C392 139.49 387.07 147.12 380.2 152.25C377.56 154.22 374.64 155.82 371.48 157C367.33 158.55 362.76 159.38 357.91 159.38C343.21 159.38 331.48 151.91 325.42 139.78Z" fill="#141414"/>
<path d="M588.94 93.8999H558.44V186.54H588.94V93.8999Z" fill="#141414"/>
<path d="M708.84 186.43L708.11 185.43L671.72 135.76L707.43 93.9H670.42L640.84 131.48H640.28V51.4299H609.59V186.54H640.28V142.08H640.84L670.4 185.43L671.08 186.43L671.16 186.54H708.92L708.84 186.43Z" fill="#141414"/>
<path d="M749.47 81.9999V109.16H800.44V135.38H749.47V186.54H718.03V51.4299H804.71V54.84H804.72V81.9999H749.47Z" fill="#141414"/>
<path d="M820.16 51.4299V186.54H851.03V51.4299H820.16Z" fill="#141414"/>
<path d="M918.18 86.9299C890.28 86.9299 866.84 105.53 866.84 135.85C866.84 166.17 890.28 185.52 918.18 185.52C946.27 185.52 969.71 166.17 969.71 135.85C969.71 105.53 946.27 86.9299 918.18 86.9299ZM918.37 159.85C904.05 159.85 896.42 147.75 896.42 135.85C896.42 123.94 903.86 112.23 918.18 112.23C932.51 112.23 940.32 123.94 940.32 135.85C940.32 147.75 932.69 159.85 918.37 159.85Z" fill="#141414"/>
<path d="M537.98 89.8999V185.43H508.59V169.7H508.21C503.94 177.89 493.33 185.14 480.31 185.14C455.39 185.14 446.64 165.8 446.64 147.2V89.8999H477.34V140.13C477.34 150.54 479.94 159.85 491.1 159.85C501.7 159.85 507.47 150.54 507.47 139.94V89.8999H537.98Z" fill="#141414"/>
<path fill-rule="evenodd" clip-rule="evenodd" d="M186.15 185.32L117.13 185.23C115.96 185.23 114.79 185.2 113.62 185.14C113.42 185.14 94.8998 185.04 84.7198 176.8C83.8698 176.11 83.0698 175.36 82.3498 174.56C73.8898 164.84 76.6398 147.94 106.05 130.58L111.8 139.24L127.67 112.19L93.3098 111.38L99.0498 120.02C81.4298 125.09 66.3398 132.88 55.2998 143.71C52.0498 135.84 50.2698 127.23 50.2798 118.19C50.3198 96.2599 60.8798 76.8199 77.1698 64.6399C88.3598 56.2499 102.27 51.2999 117.33 51.3199C124.98 51.3299 132.33 52.6199 139.18 55.0099C165.4 64.0999 184.22 89.0499 184.17 118.36C184.15 132.16 179.96 144.97 172.82 155.63C172.76 155.59 172.74 155.57 172.68 155.56C171.8 156.89 170.85 158.18 169.87 159.42C169.91 159.46 169.94 159.47 169.99 159.49C179.57 164.13 186.17 173.96 186.15 185.32Z" fill="white"/>
<path fill-rule="evenodd" clip-rule="evenodd" d="M84.7096 176.8C84.6396 176.77 84.5796 176.73 84.5196 176.69C83.9696 176.22 83.4496 175.73 82.9596 175.22C82.7496 175 82.5496 174.78 82.3496 174.55C83.0596 175.36 83.8496 176.11 84.7096 176.8Z" fill="#141414"/>
<path d="M591.18 72.34H582.13L588.53 78.7399L583.58 83.6899L577.18 77.2899V86.34H570.18V77.2899L563.78 83.6899L558.83 78.7399L565.23 72.34H556.18V65.34H565.23L558.83 58.9399L563.78 53.9899L570.18 60.39V51.34H577.18V60.39L583.58 53.9899L588.53 58.9399L582.14 65.34H591.18V72.34Z" fill="#141414"/>
</svg>
