<svg width="47" height="46" viewBox="0 0 47 46" fill="none" xmlns="http://www.w3.org/2000/svg">
<circle cx="23.3339" cy="22.9667" r="22.6133" stroke="#A5A5A5" stroke-width="0.706667"/>
<path d="M25.8992 23.5201L21.6992 25.9201V21.1201L25.8992 23.5201Z" fill="black" stroke="#A5A5A5" stroke-width="1.5" stroke-linecap="round" stroke-linejoin="round"/>
<path d="M11.5 24.3696V22.6704C11.5 19.1964 11.5 17.4588 12.586 16.3416C13.6732 15.2232 15.3844 15.1752 18.8056 15.078C20.4256 15.0324 22.0816 15 23.5 15C24.9172 15 26.5732 15.0324 28.1944 15.078C31.6156 15.1752 33.3268 15.2232 34.4128 16.3416C35.5 17.4588 35.5 19.1976 35.5 22.6704V24.3684C35.5 27.8436 35.5 29.58 34.414 30.6984C33.3268 31.8156 31.6168 31.8648 28.1944 31.9608C26.5744 32.0076 24.9184 32.04 23.5 32.04C21.9349 32.0353 20.37 32.0089 18.8056 31.9608C15.3844 31.8648 13.6732 31.8168 12.586 30.6984C11.5 29.58 11.5 27.8424 11.5 24.3696Z" stroke="#A5A5A5" stroke-width="1.5"/>
</svg>
